<svg
    class="logo"
    id="logo"
    version="1.1"
    viewBox="0 0 113.74076 27.0886">
    <g transform="translate(-9.4998011,-87.384549)">
        <g transform="translate(0.52916653,27.332905)" aria-label="LENSBOT">
        <g>
            <path
            style="fill:#ffffff;stroke-width:0.26458332"
            d="M 8.9706346,86.089287 H 19.236467 V 82.561509 H 12.85119 V 61.394844 H 8.9706346 Z" />
            <path
            style="fill:#ffffff;stroke-width:0.26458332"
            d="m 26.520226,64.922622 h 6.702777 V 61.394844 H 22.63967 v 24.694443 h 10.583333 v -3.527778 h -6.702777 v -7.231944 h 5.326944 v -3.527777 h -5.326944 z" />
            <path
            style="fill:#ffffff;stroke-width:0.26458332"
            d="m 45.56361,86.089287 h 3.986388 V 61.394844 h -3.457222 v 14.781388 h -0.07055 L 42.106388,61.394844 h -4.868333 v 24.694443 h 3.4925 V 68.203455 h 0.07055 z" />
            <path
            style="fill:#ffffff;stroke-width:0.26458332"
            d="m 53.549065,67.321511 c 0,2.822222 1.023055,4.868333 4.268611,7.725832 2.539999,2.2225 3.31611,3.563056 3.31611,5.362222 0,1.763889 -0.776111,2.398889 -2.010833,2.398889 -1.234722,0 -2.010833,-0.635 -2.010833,-2.398889 v -1.763889 h -3.668889 v 1.516945 c 0,3.95111 1.975556,6.208888 5.785556,6.208888 3.809999,0 5.785555,-2.257778 5.785555,-6.208888 0,-2.822222 -1.023056,-4.868333 -4.268611,-7.725833 -2.54,-2.2225 -3.316111,-3.563055 -3.316111,-5.362222 0,-1.763889 0.705555,-2.434166 1.940278,-2.434166 1.234722,0 1.940277,0.670277 1.940277,2.434166 v 1.023056 h 3.668889 v -0.776111 c 0,-3.951111 -1.940278,-6.208889 -5.715,-6.208889 -3.774722,0 -5.714999,2.257778 -5.714999,6.208889 z" />
            <path
            style="fill:#ffffff;stroke-width:0.26458332"
            d="M 74.739431,61.394844 H 68.88332 v 24.694443 h 6.103055 c 3.880555,0 5.891388,-2.046111 5.891388,-5.856111 v -2.010833 c 0,-2.610555 -0.811388,-4.445 -2.892777,-5.256388 v -0.07056 c 1.728611,-0.811389 2.504722,-2.398889 2.504722,-4.938888 v -0.881945 c 0,-3.809999 -1.728611,-5.679722 -5.750277,-5.679722 z m -0.246945,13.581944 c 1.763889,0 2.504722,0.705555 2.504722,2.998611 v 2.151944 c 0,1.834444 -0.705555,2.434166 -2.010833,2.434166 h -2.2225 v -7.584721 z m 0.141111,-10.054166 c 1.375833,0 1.975556,0.776111 1.975556,2.54 v 1.375833 c 0,1.975555 -0.881945,2.610555 -2.328333,2.610555 h -1.516945 v -6.526388 z" />
        </g>
        <g>
            <path
            style="fill:#ffffff;stroke-width:0.26458332"
            d="m 110.71696,64.953056 h 4.05694 V 86.11972 h 3.88056 V 64.953056 h 4.05694 v -3.527778 h -11.99444 z" />
        </g>
        </g>
        <ellipse
        ry="7.6350222"
        rx="7.5347986"
        cy="101.02919"
        cx="97.781853"
        style="fill:none;fill-opacity:1;stroke:#ffffff;stroke-width:2.86355805;stroke-miterlimit:4;stroke-dasharray:none;stroke-opacity:1" />
        <ellipse
        ry="6.1471996"
        rx="5.9801574"
        cy="101.16286"
        cx="97.915489"
        style="fill:none;fill-opacity:1;stroke:none;stroke-width:0.1;stroke-miterlimit:4;stroke-dasharray:none;stroke-opacity:1" />
        <path
        d="m 79.440491,101.13795 c 4.349768,-5.810713 10.231366,-12.403144 18.441594,-12.403144 8.593865,-0.04756 14.305135,6.564458 18.374765,12.403144 -3.93771,6.61451 -11.14547,11.9852 -18.374765,11.9852 -8.186969,0 -14.50863,-6.38004 -18.441594,-11.9852 z"
        style="fill:none;stroke:#ffffff;stroke-width:2.70000005;stroke-linecap:butt;stroke-linejoin:miter;stroke-miterlimit:4;stroke-dasharray:none;stroke-opacity:1" />
        <ellipse
        ry="3.4744997"
        rx="3.574729"
        cy="101.09605"
        cx="97.915489"
        style="fill:#ffffff;fill-opacity:1;stroke:none;stroke-width:0.1;stroke-miterlimit:4;stroke-dasharray:none;stroke-opacity:1" />
    </g>
</svg>