<svg version="1" xmlns="http://www.w3.org/2000/svg" width="264" height="264" viewBox="0 0 198.000000 198.000000"><path d="M85 38c-10.1 2.2-20.3 5.9-27.6 10.1C43.1 56.2 25 73 14.9 87.4 10.7 93.3 10 95 10 98.9c.1 5.7.7 6.8 10 17.2 15.2 17 22.8 23.5 38.5 32.7 24.2 14.2 56.5 14.4 81.1.7 21-11.8 50.4-41.5 50.4-51 0-5-6.9-14.4-20.5-28.1-18.4-18.7-34.8-28.3-55-32.5-11-2.3-18.4-2.3-29.5.1zm29.5 14c16.3 4.2 31.7 13.9 46.3 29.5 11.1 11.7 13.8 15.8 12.4 18.8-2.1 4.4-17.2 20.5-25.3 27-40.3 32.3-84.5 22.4-122.7-27.4-1.1-1.4-.4-2.8 4.6-9 8.1-10.2 21.7-22.8 30.5-28.3C79.2 50.8 96.6 47.4 114.5 52z"/><path d="M89 58.4c-7.1 1.9-11.8 4.5-17.6 9.8-9.8 9-14.2 22.4-12.2 37.2 2.6 19.5 19.7 33.8 40.3 33.8 9.3 0 16.7-2.2 23.5-6.9 24.7-17.3 23.4-54.6-2.5-69.7-8.7-5.2-21.8-6.9-31.5-4.2zM108.2 72c5.3 1.5 11.7 6.7 15.2 12.3 4.1 6.7 4.8 17 1.6 24.5-3 6.9-10.5 13.7-17.3 15.7-6.5 1.9-10.2 1.9-16.6-.2-14-4.5-22.2-20.5-17.6-34.3 4.7-14.1 20.1-22 34.7-18z"/><path d="M93.6 83c-6.2 1.9-9.6 7.3-9.6 15.2 0 6.2 2.4 10.8 7.2 13.9 2.6 1.6 4.6 1.9 9.3 1.7 7.2-.4 10.6-2.5 13.5-8.4 2.6-5.2 2.5-8.9-.2-14.4-3.6-7.2-11.9-10.4-20.2-8z"/></svg>